<?xml version="1.0" encoding="utf-8"?>
<!-- Generator: Adobe Illustrator 16.0.3, SVG Export Plug-In . SVG Version: 6.00 Build 0)  -->
<!DOCTYPE svg PUBLIC "-//W3C//DTD SVG 1.1//EN" "http://www.w3.org/Graphics/SVG/1.1/DTD/svg11.dtd">
<svg version="1.1" id="Layer_1" xmlns="http://www.w3.org/2000/svg" xmlns:xlink="http://www.w3.org/1999/xlink" x="0px" y="0px"
	 width="594.405px" height="515.118px" viewBox="-8.021 131.382 594.405 515.118"
	 enable-background="new -8.021 131.382 594.405 515.118" xml:space="preserve">
<g>
	<g>
		<path fill="#EC2C24" d="M305.78,386.539c0,0-11.978-10.383-26.356-1.598c-14.378,8.786-12.46,49.043,23.961,49.203
			c28.949,0.128,38.979-21.247,34.027-37.541C332.458,380.31,315.685,379.188,305.78,386.539z"/>
	</g>
	<g>
		<path fill="#5E4123" d="M288.605,367.928c0,0,16.866,3.56,17.43,23.614c0,0-1.379-14.253-18.435-20.813
			C287.601,370.727,287.666,369.051,288.605,367.928z"/>
	</g>
	<g>
		<path fill="#609641" d="M302.794,382.707c0,0-8.118-15.989,16.327-29.596C319.122,353.111,325.688,370.953,302.794,382.707z"/>
	</g>
	<g>
		<path fill="#3F6932" d="M302.794,382.707c0,0,6.599-23.331,16.327-29.596C319.122,353.111,294.95,361.602,302.794,382.707z"/>
	</g>
	<g>
		<path fill="#D22027" d="M277.055,422.322c0,0,46.738,3.604,58.646-29.947c0,0,7.776,11.415-1.821,29.81
			c0,0-6.896,15.499-32.379,12.521C301.502,434.706,286.647,435.338,277.055,422.322z"/>
	</g>
</g>
<g>
	<g>
		<path fill="#5F191D" d="M455.319,372.74H472.9v24.554c0,4.835-3.958,8.798-8.791,8.798l0,0c-4.839,0-8.783-3.966-8.783-8.798
			V372.74H455.319z"/>
	</g>
	<g>
		<path fill="#5F191D" d="M417.422,358.095c0.449,0.227,0.905,0.438,1.373,0.651c7.727,3.626,15.656,6.293,23.644,8.037
			c3.743,0.816,7.488,1.432,11.232,1.864c1.815,0.201,3.622,0.354,5.444,0.474c3.618,0.227,7.244,0.279,10.846,0.152
			c1.791-0.064,3.591-0.174,5.388-0.312c8.045-0.669,15.982-2.225,23.661-4.585c1.713-0.527,3.408-1.096,5.077-1.698
			c1.681-0.622,3.343-1.259,4.988-1.941c2.476-1.033,4.898-2.15,7.306-3.354c3.784-1.911,7.47-4.032,11.021-6.367
			c0.938-0.623,1.883-1.242,2.805-1.894c1.472-1.029,2.923-2.09,4.341-3.201c0.715-0.548,1.419-1.107,2.122-1.673
			c1.397-1.143,2.777-2.317,4.126-3.517c1.348-1.22,2.67-2.473,3.958-3.753c2.579-2.558,5.056-5.268,7.395-8.107
			c1.177-1.412,2.309-2.866,3.415-4.349c1.104-1.482,2.177-3.01,3.235-4.559c1.021-1.543,2.029-3.128,3.01-4.741
			c1.938-3.232,3.725-6.594,5.359-10.092c1.631-3.481,3.073-7.005,4.325-10.567c0.622-1.772,1.203-3.57,1.733-5.349
			c0.524-1.801,1.005-3.605,1.437-5.387c0.443-1.812,0.828-3.608,1.168-5.435c0.686-3.604,1.186-7.23,1.504-10.856
			c0.084-0.901,0.155-1.811,0.204-2.724c0.174-2.713,0.252-5.426,0.213-8.125c-0.003-0.906-0.032-1.811-0.064-2.709
			c-0.06-1.808-0.165-3.594-0.313-5.388c-0.446-5.377-1.288-10.69-2.494-15.911c-0.605-2.611-1.306-5.201-2.085-7.754
			c-0.533-1.709-1.097-3.407-1.708-5.083c-0.608-1.677-1.248-3.343-1.928-4.988c-1.329-3.191-2.813-6.321-4.429-9.378
			c-2.147-4.051-4.543-7.974-7.183-11.752c-1.025-1.464-2.089-2.915-3.193-4.34c-0.505-0.648-1.012-1.292-1.538-1.935
			c-0.623-0.761-1.246-1.525-1.887-2.265c-0.271-0.314-0.545-0.623-0.813-0.937c-0.923-1.047-1.854-2.09-2.815-3.106
			c-0.018-0.024-0.032-0.032-0.05-0.042c-1.025-1.086-2.083-2.154-3.147-3.206c-0.224-0.212-0.436-0.424-0.655-0.636
			c-2.512-2.412-5.154-4.715-7.923-6.913c-0.856-0.679-1.734-1.354-2.622-2.023c-0.647-0.465-1.284-0.944-1.945-1.4
			c-4.857-3.455-10.061-6.567-15.575-9.281c-0.613-0.291-1.218-0.588-1.841-0.882c-0.459-0.212-0.919-0.429-1.386-0.636l3.668-7.827
			c0.459,0.218,0.927,0.426,1.383,0.639c0.666,0.315,1.323,0.644,1.975,0.958c5.95,2.92,11.55,6.269,16.785,9.994
			c0.703,0.5,1.397,1.007,2.094,1.524c0.963,0.709,1.896,1.427,2.822,2.168c2.991,2.366,5.834,4.847,8.537,7.451
			c0.252,0.222,0.479,0.459,0.715,0.689c1.146,1.125,2.291,2.268,3.388,3.442c0.021,0.01,0.032,0.021,0.051,0.042
			c1.04,1.097,2.047,2.215,3.038,3.354c0.287,0.333,0.581,0.655,0.864,0.998c0.695,0.803,1.375,1.634,2.041,2.448
			c0.558,0.69,1.103,1.387,1.651,2.084c1.188,1.538,2.33,3.088,3.445,4.676c2.833,4.075,5.423,8.299,7.729,12.664
			c1.749,3.297,3.34,6.671,4.77,10.107c0.736,1.775,1.434,3.565,2.09,5.376c0.652,1.815,1.26,3.626,1.829,5.466
			c0.843,2.763,1.593,5.547,2.243,8.363c1.309,5.631,2.215,11.355,2.691,17.139c0.16,1.935,0.266,3.86,0.34,5.806
			c0.035,0.969,0.062,1.941,0.071,2.911c0.035,2.915-0.049,5.84-0.233,8.766c-0.057,0.976-0.128,1.952-0.217,2.935
			c-0.346,3.896-0.88,7.815-1.627,11.71c-0.363,1.949-0.781,3.887-1.248,5.826c-0.463,1.942-0.986,3.87-1.55,5.812
			c-0.575,1.925-1.198,3.856-1.868,5.766c-1.351,3.839-2.903,7.645-4.661,11.398c-1.766,3.754-3.693,7.38-5.785,10.86
			c-1.043,1.741-2.125,3.445-3.242,5.111c-1.126,1.677-2.289,3.312-3.472,4.913c-1.194,1.596-2.426,3.16-3.688,4.685
			c-2.516,3.07-5.19,5.979-7.959,8.741c-1.397,1.383-2.824,2.72-4.27,4.032c-1.459,1.291-2.938,2.562-4.44,3.796
			c-0.757,0.604-1.514,1.214-2.296,1.801c-1.528,1.199-3.085,2.338-4.673,3.456c-0.998,0.687-2.014,1.358-3.024,2.031
			c-3.835,2.518-7.797,4.803-11.883,6.858c-2.579,1.288-5.199,2.498-7.863,3.612c-1.77,0.746-3.574,1.421-5.374,2.083
			c-1.807,0.65-3.63,1.273-5.466,1.832c-8.277,2.537-16.823,4.218-25.502,4.936c-1.931,0.162-3.865,0.279-5.805,0.347
			c-3.877,0.127-7.779,0.081-11.688-0.166c-1.952-0.128-3.904-0.301-5.854-0.513c-4.03-0.457-8.076-1.133-12.105-2.007
			c-8.6-1.889-17.15-4.751-25.481-8.652c-0.456-0.212-0.912-0.438-1.364-0.647L417.422,358.095z"/>
	</g>
	<g>
		<path fill="#5F191D" d="M525.061,132.209L525.061,132.209c4.383,2.062,6.287,7.316,4.234,11.704L419.014,378.998
			c-2.06,4.379-7.322,6.278-11.702,4.227l0,0c-4.376-2.051-6.283-7.312-4.228-11.694l110.288-235.091
			C515.422,132.058,520.685,130.156,525.061,132.209z"/>
	</g>
	<g>
		<path fill="#24B4D5" d="M549.788,196.386c1.028,1.358,2.009,2.752,2.96,4.185c0.962,1.418,1.886,2.883,2.782,4.365
			c1.771,2.968,3.415,6.066,4.926,9.274c1.498,3.202,2.827,6.446,3.974,9.71c0.576,1.628,1.106,3.273,1.58,4.917
			c0.492,1.645,0.936,3.29,1.335,4.963c0.399,1.652,0.76,3.308,1.067,4.978c0.637,3.318,1.087,6.65,1.38,9.986
			c0.148,1.666,0.255,3.335,0.315,4.998c0.067,1.67,0.089,3.326,0.077,4.988c-0.015,0.824-0.03,1.648-0.06,2.483
			c-0.057,1.655-0.159,3.3-0.29,4.946c-0.414,4.935-1.186,9.827-2.3,14.63c-0.548,2.398-1.191,4.776-1.916,7.131
			c-0.482,1.571-1.01,3.12-1.564,4.669c-0.563,1.533-1.161,3.064-1.779,4.578c-2.842,6.817-6.414,13.33-10.673,19.424
			c-0.94,1.355-1.928,2.685-2.937,3.997c-2.021,2.611-4.195,5.147-6.476,7.577c-1.15,1.21-2.329,2.398-3.539,3.556
			c-7.863,7.553-17.071,13.963-27.482,18.848c-7.106,3.336-14.391,5.787-21.741,7.379c-3.438,0.761-6.884,1.331-10.322,1.72
			c-1.666,0.181-3.336,0.332-5.006,0.435c-3.325,0.216-6.658,0.266-9.969,0.142c-1.648-0.063-3.296-0.159-4.949-0.293
			c-7.396-0.62-14.698-2.038-21.755-4.203c-1.563-0.488-3.123-1.012-4.663-1.57c-1.546-0.559-3.074-1.146-4.585-1.772
			c-2.273-0.958-4.513-1.981-6.71-3.092c-3.487-1.744-6.866-3.703-10.138-5.848c-0.86-0.57-1.73-1.139-2.583-1.74
			c-1.351-0.944-2.688-1.921-3.983-2.936c-0.658-0.507-1.306-1.017-1.955-1.543c-1.274-1.047-2.541-2.133-3.79-3.24
			c-1.23-1.118-2.44-2.257-3.632-3.435c-2.375-2.353-4.651-4.844-6.796-7.457c-1.079-1.302-2.125-2.632-3.141-4.005
			c-1.019-1.358-2.005-2.753-2.968-4.185c-0.959-1.419-1.875-2.872-2.771-4.365c-1.779-2.968-3.424-6.053-4.928-9.268
			c-1.502-3.202-2.825-6.449-3.979-9.71c-0.563-1.635-1.1-3.279-1.588-4.932c-0.474-1.642-0.923-3.297-1.319-4.941
			c-0.403-1.652-0.76-3.326-1.064-4.988c-0.634-3.325-1.093-6.654-1.388-9.99c-0.074-0.838-0.134-1.666-0.185-2.501
			c-0.158-2.5-0.232-4.987-0.197-7.475c0.007-0.838,0.036-1.666,0.057-2.49c0.063-1.656,0.159-3.304,0.287-4.949
			c0.414-4.938,1.188-9.827,2.3-14.631c0.548-2.398,1.192-4.775,1.913-7.135c0.489-1.56,1.008-3.117,1.567-4.659
			c0.56-1.55,1.146-3.071,1.782-4.585c1.218-2.936,2.577-5.808,4.069-8.625c1.963-3.721,4.166-7.333,6.594-10.806
			c0.948-1.352,1.928-2.678,2.936-3.991c0.474-0.598,0.933-1.189,1.409-1.761c0.576-0.705,1.148-1.405,1.744-2.095
			c0.244-0.283,0.488-0.573,0.739-0.856c0.849-0.965,1.702-1.92,2.589-2.857c0.018-0.015,0.029-0.025,0.033-0.033
			c0.951-1.011,1.924-1.98,2.905-2.939c0.197-0.201,0.391-0.396,0.608-0.59c2.303-2.226,4.732-4.341,7.279-6.35
			c0.793-0.633,1.595-1.25,2.417-1.861c0.587-0.45,1.181-0.87,1.785-1.298c4.454-3.169,9.236-6.035,14.313-8.527
			c0.558-0.276,1.117-0.547,1.69-0.816c0.956-0.458,1.921-0.882,2.887-1.3c9.517-4.119,19.337-6.683,29.17-7.79
			c1.663-0.182,3.337-0.338,5-0.438c0.509-0.032,1.031-0.059,1.552-0.085c1.143-0.058,2.296-0.094,3.439-0.111
			c1.662-0.03,3.316-0.003,4.979,0.053c1.649,0.063,3.308,0.152,4.949,0.293c6.614,0.553,13.148,1.751,19.498,3.546
			c0.754,0.214,1.505,0.435,2.258,0.662c1.564,0.483,3.117,1.01,4.663,1.565c1.538,0.558,3.076,1.152,4.584,1.781
			c2.275,0.95,4.514,1.974,6.715,3.078c4.396,2.216,8.647,4.755,12.709,7.589c1.358,0.952,2.693,1.935,3.998,2.94
			c0.653,0.506,1.302,1.025,1.942,1.542c1.931,1.574,3.803,3.226,5.638,4.941c0.602,0.566,1.207,1.157,1.797,1.737
			c2.375,2.355,4.646,4.846,6.8,7.457C547.727,193.679,548.772,195.02,549.788,196.386z"/>
	</g>
	<g>
		<rect x="441.559" y="394.1" fill="#38250B" width="46.072" height="24.093"/>
	</g>
	<g>
		<rect x="387" y="418.192" fill="#5F191D" width="155.865" height="17.009"/>
	</g>
	<g>
		<path fill="#16A2B9" d="M570.044,253.768c-0.071-1.663-0.167-3.33-0.313-5c-0.292-3.332-0.757-6.667-1.386-9.982
			c-0.313-1.673-0.67-3.325-1.072-4.981c-0.393-1.67-0.831-3.314-1.329-4.959c-0.475-1.646-1.017-3.291-1.582-4.917
			c-1.146-3.269-2.479-6.516-3.973-9.71c-1.504-3.212-3.148-6.311-4.928-9.275c-0.892-1.485-1.817-2.95-2.78-4.369
			c-0.947-1.433-1.936-2.83-2.961-4.185c-1.011-1.366-2.063-2.7-3.132-4.005c-2.154-2.61-4.425-5.098-6.806-7.457
			c-0.587-0.581-1.188-1.171-1.793-1.737c-1.83-1.722-3.704-3.368-5.635-4.941c-0.645-0.513-1.288-1.034-1.943-1.542
			c-0.73-0.563-1.484-1.09-2.229-1.634c0.315,0.637,0.683,1.216,0.995,1.864c1.499,3.201,2.83,6.442,3.969,9.71
			c0.577,1.627,1.107,3.272,1.588,4.917c0.492,1.645,0.934,3.291,1.335,4.96c0.399,1.655,0.753,3.312,1.067,4.977
			c0.634,3.322,1.087,6.654,1.383,9.99c0.146,1.663,0.252,3.329,0.315,4.995c0.067,1.67,0.089,3.322,0.074,4.992
			c-0.012,0.824-0.036,1.641-0.057,2.479c-0.057,1.66-0.158,3.304-0.295,4.949c-0.408,4.935-1.18,9.827-2.295,14.631
			c-0.548,2.395-1.203,4.775-1.921,7.131c-0.48,1.566-1.005,3.116-1.56,4.669c-0.565,1.532-1.161,3.063-1.783,4.577
			c-2.837,6.817-6.41,13.329-10.673,19.424c-0.937,1.355-1.929,2.686-2.933,3.991c-2.023,2.614-4.195,5.153-6.478,7.577
			c-1.148,1.213-2.327,2.398-3.54,3.562c-7.86,7.546-17.068,13.956-27.479,18.848c-7.104,3.328-14.395,5.78-21.745,7.371
			c-3.436,0.765-6.881,1.338-10.319,1.724c-1.67,0.181-3.336,0.332-5.005,0.438c-3.329,0.213-6.659,0.266-9.97,0.142
			c-1.648-0.067-3.301-0.166-4.949-0.297c-7.399-0.623-14.69-2.041-21.755-4.203c-1.567-0.488-3.131-1.008-4.666-1.566
			c-1.546-0.56-3.071-1.153-4.585-1.776c-2.274-0.958-4.506-1.984-6.707-3.088c-3.487-1.751-6.869-3.711-10.143-5.851
			c-0.859-0.569-1.726-1.139-2.578-1.74c-0.598-0.424-1.186-0.871-1.779-1.306c1.252,2.53,2.518,5.045,3.951,7.419
			c0.891,1.493,1.814,2.946,2.766,4.365c0.962,1.432,1.946,2.829,2.973,4.185c1.011,1.376,2.062,2.703,3.144,4.005
			c2.14,2.61,4.418,5.101,6.791,7.457c1.193,1.181,2.403,2.316,3.638,3.431c1.242,1.111,2.509,2.197,3.784,3.244
			c0.648,0.526,1.296,1.033,1.957,1.543c1.299,1.015,2.639,1.991,3.987,2.936c0.849,0.602,1.716,1.167,2.578,1.74
			c3.269,2.14,6.65,4.107,10.139,5.848c2.193,1.11,4.437,2.134,6.707,3.092c1.514,0.63,3.046,1.214,4.589,1.772
			c1.531,0.559,3.087,1.079,4.662,1.57c7.063,2.165,14.357,3.588,21.759,4.203c1.645,0.134,3.293,0.236,4.945,0.293
			c3.314,0.121,6.64,0.074,9.968-0.142c1.674-0.099,3.34-0.254,5.006-0.435c3.443-0.389,6.882-0.959,10.323-1.72
			c7.348-1.592,14.642-4.043,21.737-7.379c10.422-4.885,19.62-11.299,27.486-18.848c1.207-1.157,2.385-2.346,3.534-3.556
			c2.282-2.43,4.454-4.966,6.478-7.577c1.014-1.313,1.994-2.649,2.936-3.997c4.267-6.095,7.843-12.607,10.676-19.424
			c0.626-1.514,1.213-3.05,1.776-4.578c0.556-1.549,1.078-3.102,1.566-4.669c0.719-2.355,1.365-4.733,1.922-7.131
			c1.111-4.804,1.878-9.693,2.292-14.63c0.137-1.646,0.237-3.291,0.289-4.949c0.029-0.832,0.051-1.652,0.062-2.48
			C570.128,257.093,570.107,255.437,570.044,253.768z"/>
	</g>
	<g>
		<rect x="441.559" y="394.1" fill="#38250B" width="46.072" height="9.512"/>
	</g>
	<g>
		<g>
			<path fill="#206787" d="M517.451,233.328c-0.105,0.658-0.105,1.319-1.067,1.776c-0.962,0.463-2.445,2.038-3.004,1.832
				c-0.56-0.205-1.11-0.608-1.578-0.71c-0.456-0.1-1.729,0.103-1.681-0.152c0.054-0.254,0.662-0.506,0.662-0.814
				c0-0.3,0.104-0.916-0.505-0.916c-0.613,0-1.784-0.357-0.974-0.457c0.816-0.103,1.531-0.357,1.326-0.619
				c-0.2-0.251-0.915-0.092-1.163-0.092c-0.262,0-0.821,0.145-0.414-0.615c0.414-0.757,0.817-1.327,1.016-1.422
				c0.204-0.103,0.919,0.053,1.015,0.556c0.106,0.513,0.715,1.627,0.821,0.916c0.099-0.711,0.308-1.171,0.505-0.764
				c0.208,0.407-0.049,0.715,0.357,0.103c0.41-0.612,0.711-0.662,1.119-0.407c0.409,0.262,0.82,0.615,0.82,0.149
				c0-0.46,0.297-1.119,0.658-0.864c0.353,0.259,0.813,0.407,1.171,0.813C516.894,232.054,517.451,233.328,517.451,233.328z"/>
		</g>
		<g>
			<path fill="#206787" d="M473.803,292.34c0.917,0.413,1.528,1.216,3.558,0.813c2.038-0.4,4.483,2.338,5.703,2.543
				c1.213,0.209,4.883,1.631,5.392,2.954c0.513,1.319,0.707,2.543,2.441,3.156c1.736,0.608,5.899,1.425,6.922,1.828
				c1.016,0.407,4.779,1.734,2.744,4.782c-2.041,3.058-2.545,3.453-3.15,6.407c-0.622,2.953-0.518,4.075-4.075,5.597
				c-3.563,1.528-2.745,2.954-3.966,4.885c-1.225,1.936-2.449,4.273-3.665,4.782c-1.22,0.507-1.531,2.852-2.646,3.566
				c-1.117,0.711-2.342-0.103-3.057,1.521c-1.368,3.134-2.443,4.167-2.953,5.09c-0.506,0.912-1.422,1.016-0.912,2.134
				c0.502,1.121,0.715,1.627-0.304,2.851c-1.016,1.217-1.424,4.783-0.411,5.593c1.022,0.82,3.052,2.342,1.121,2.551
				c-1.935,0.202-7.125-1.224-7.318-5.091c-0.212-3.866,0.71-13.325,1.928-17.401c1.225-4.067,3.865-14.241,0.102-16.48
				c-3.767-2.242-5.284-7.326-6.002-7.938c-0.715-0.616-0.612-2.54-0.612-3.152c0-0.616,0.198-2.54,1.016-3.053
				c0.81-0.502,1.825-2.038,1.623-3.46c-0.202-1.422,1.32-2.643,1.836-3.152c0.506-0.51,1.422-1.624,2.643-1.624
				C472.989,292.04,473.803,292.34,473.803,292.34z"/>
		</g>
		<g>
			<path fill="#206787" d="M481.698,348.37c-0.318-0.194-0.764-0.177-1.069,0.05c-0.307,0.223-0.462,0.629-0.385,1.001
				c0.808,0.647,2.088,0.591,2.845-0.113c0.191-0.188,0.367-0.453,0.286-0.711c-0.082-0.294-0.432-0.418-0.732-0.41
				c-0.294,0-0.604,0.081-0.891,0.018L481.698,348.37z"/>
		</g>
		<g>
			<path fill="#206787" d="M470.959,285.283c1.297,0.035,2.581,0.389,3.71,1.012c0.075,0.039,0.159,0.106,0.141,0.184
				c-0.021,0.067-0.102,0.1-0.165,0.117c-1.497,0.357-3.053,0.46-4.573,0.294c-0.074-0.216,0.165-0.421,0.396-0.453
				c0.226-0.032,0.456,0.035,0.679-0.015c0.225-0.049,0.427-0.301,0.3-0.488c-0.18,0-0.367,0.004-0.537-0.07
				c-0.163-0.075-0.301-0.248-0.28-0.428c0.029-0.185,0.269-0.312,0.411-0.202L470.959,285.283z"/>
		</g>
		<g>
			<path fill="#206787" d="M476.455,286.408c-0.418-0.142-0.892-0.107-1.279,0.099c-0.068,0.036-0.14,0.085-0.152,0.149
				c-0.021,0.127,0.116,0.219,0.239,0.269c0.33,0.117,0.705,0.233,1.03,0.089c0.322-0.149,0.456-0.676,0.141-0.842L476.455,286.408z
				"/>
		</g>
		<g>
			<path fill="#206787" d="M467.909,285.541c-0.167-0.025-0.344-0.067-0.463-0.185c-0.152-0.155-0.163-0.403-0.283-0.594
				c-0.265-0.4-0.857-0.318-1.328-0.4c-0.479-0.081-0.9-0.375-1.332-0.616c-0.429-0.229-0.948-0.41-1.409-0.237
				c-0.321,0.117-0.752,0.357-0.927,0.064c-0.123-0.213,0.089-0.478,0.322-0.552c0.237-0.07,0.491-0.046,0.718-0.124
				c0.384-0.134,0.644-0.569,1.037-0.576c0.443-0.007,0.721,0.496,1.146,0.623c0.251,0.071,0.516-0.003,0.778-0.011
				c0.696-0.031,1.326,0.375,1.903,0.775c0.626,0.424,1.252,0.852,1.881,1.28c0.057,0.04,0.11,0.074,0.143,0.135
				c0.077,0.131,0,0.314-0.125,0.399c-0.126,0.088-0.289,0.1-0.441,0.106C468.991,285.65,468.439,285.623,467.909,285.541z"/>
		</g>
		<g>
			<path fill="#206787" d="M466.83,286.687c0.194-0.244,0.538-0.339,0.831-0.247c0.286,0.088,0.51,0.371,0.53,0.672
				c-0.459,0.174-1.019,0.046-1.368-0.307L466.83,286.687z"/>
		</g>
		<g>
			<path fill="#206787" d="M467.924,294.904c-0.068-0.909-2.006-1.454-2.467-1.04c-1.223,1.111-3.254-0.813-2.745-2.133
				c0.51-1.323,0.709-2.95-0.912-2.95c-1.635,0-3.152,0.201-2.749-1.016c0.407-1.22,2.445-3.563,1.218-3.563
				c-1.218,0-1.733,0.1-2.95,1.221c-1.221,1.118-4.578,2.132-5.19-0.817c-0.611-2.95-0.509-6.406,0.612-6.615
				c1.122-0.198,2.136-1.118,3.866-0.715c1.737,0.411,1.422-0.499,2.137-0.703c0.715-0.202,3.361-0.814,4.076,0.611
				s1.12,3.97,1.729,3.97c0.613,0,1.73-1.833,0.202-4.174c-1.525-2.335,4.076-4.578,4.377-5.6c0.304-1.016-0.206-2.137,0.915-3.559
				c1.117-1.422,3.254-1.931,3.354-2.536c0.099-0.615,1.526-3.057,2.238-3.057s1.225,1.938,1.832,1.528
				c0.611-0.41,4.783-2.851,4.281-3.357c-0.514-0.509-1.628-0.205-2.653-0.403c-1.017-0.208-1.22-1.429-1.017-2.144
				c0.206-0.708,0.918-1.825,1.633-1.825c0.71,0,1.829-0.209,2.337-0.612c0.509-0.407,3.152-1.528,2.647-2.749
				c-0.51-1.221-0.414-1.627-1.629-2.445c-1.22-0.813-3.764-4.17-4.479-6.201c-0.713-2.034-1.422-3.057-1.729-1.423
				c-0.305,1.621-1.734,2.944-2.544,1.016c-0.82-1.936-1.326-3.357-2.444-3.969c-1.122-0.612-1.122-1.019-2.44-1.217
				c-1.323-0.206-2.547-1.221-2.445,0.502c0.106,1.734,0.407,3.969-0.102,4.687c-0.499,0.708,1.942,2.742,1.224,3.969
				c-0.715,1.214-2.65,1.929-2.441,2.844c0.198,0.92,1.825,4.073-0.308,3.361c-2.134-0.71-1.016-3.361-1.525-3.972
				c-0.516-0.604-3.257-0.403-4.074-1.316c-0.811-0.916-3.254-2.448-4.479-3.459c-1.213-1.019-1.825-2.95-0.095-5.699
				c1.726-2.746,5.283-5.285,5.599-6.718c0.305-1.418,3.966-1.729,3.764-2.848c-0.205-1.121,0-4.071-0.414-4.375
				c-0.406-0.304-2.137-2.646-2.85-0.505c-0.708,2.133-1.119,4.885-1.93,3.661c-0.819-1.217-0.915-4.174-2.137-4.68
				c-1.219-0.517-2.342-2.852-2.342-4.273c0-1.43,1.331-2.339,1.734-3.669c0.407-1.319,1.117-2.129-0.707-2.646
				c-1.833-0.505-2.342,0.612-2.548,2.441c-0.205,1.835,0.103,3.159-0.407,4.584c-0.51,1.425,1.222,4.882,0.613,6.002
				c-0.613,1.119-0.817,2.038-3.159,1.73c-2.335-0.3-4.978-2.543-6.304-1.528c-1.326,1.019-5.498,3.463-6.109,1.733
				c-0.609-1.733-2.643-3.764-4.578-3.969c-1.932-0.208-3.764,0.301-4.369-0.304c-0.611-0.619-0.71-2.133-1.938-1.425
				c-1.217,0.714-3.862,3.361-4.983,3.361c-1.122,0-4.069-1.837-7.734-2.647c-3.656-0.813-6.508-3.774-9.466-1.938
				c-2.947,1.833-4.067,3.16-5.999,4.171c-1.931,1.015,0,2.851,0.71,3.869c0.712,1.012,0.408,1.525-1.014,2.138
				c-0.474,0.205-1.309-0.856-2.07,0c-0.611,0.686,0.064,2.274,1.15,2.543c1.627,0.403,6.409,0.817,4.174,1.935
				c-2.243,1.11-3.662,2.745-3.463,4.365c0.209,1.634,0.715,2.749,2.041,2.653c1.32-0.102,1.32,1.122,2.232,1.422
				c0.92,0.308,3.36,0.308,1.938,1.729c-1.429,1.422-7.715,5.116-7.379,5.547c0.611,0.764,10.33-5.447,10.736-6.364
				c0.407-0.913,2.44-2.742,3.56-3.049c1.121-0.304,2.036-1.125,4.688-0.304c2.641,0.81,5.801,4.677,7.432,5.797
				c1.62,1.122,4.779,5.289,6.003,8.448c1.22,3.151,0.82,6.098,1.32,9.056c0.508,2.947,2.443,7.22,3.972,8.341
				c1.532,1.122,6.201,9.566,6.919,9.566c0.719,0,0.305-1.634-1.524-4.277c-1.829-2.649-3.052-5.593-0.206-1.829
				c2.856,3.76,5.188,6.003,5.494,7.125c0.305,1.118,4.887,5.084,7.225,5.289c2.338,0.206,7.322,1.422,7.53,2.239
				c0.199,0.811,3.659,3.764,4.476,3.867c0.82,0.099,0.846-0.987,1.355-1.037c0.594-0.061,0.919,0.965,1.067,1.199
				C467.315,295.817,467.924,294.904,467.924,294.904z"/>
		</g>
		<g>
			<path fill="#206787" d="M482.401,256.268c-0.456,0.577-0.738,1.295-0.792,2.027c-0.018,0.17-0.013,0.354,0.06,0.51
				c0.259,0.495,0.995,0.343,1.555,0.378c0.668,0.046,1.245,0.463,1.839,0.782c0.59,0.325,1.334,0.544,1.918,0.209
				c-0.012-0.602-0.288-1.157-0.55-1.698c-0.165-0.333-0.335-0.676-0.501-1.019c-0.361-0.736-0.775-1.528-1.501-1.913
				c-0.722-0.39-1.849-0.11-2.009,0.696L482.401,256.268z"/>
		</g>
		<g>
			<path fill="#206787" d="M476.752,207.585c3.054-0.307,3.814-2.6,6.105,3.662c2.294,6.254,4.123,7.63,4.123,10.531
				c0,2.897-1.986,7.174-1.072,9.919c0.924,2.742,5.649,11.749,7.325,10.829c1.685-0.906,2.594-7.167,4.274-8.692
				c1.687-1.532,3.207-5.041,6.261-5.805c3.049-0.764,7.02-1.833,7.318-6.559c0.309-4.733,1.837-14.655,0.769-21.678
				c-0.761-4.999,5.038-9.922,6.406-12.059c1.376-2.133,0.619-5.338-1.673-4.426c-2.293,0.916-3.665,3.212-4.281,2.292
				c-0.607-0.916-0.607-4.121-1.825-3.817c-1.22,0.307-7.475,2.445-6.261,0.923c1.224-1.528,8.086-1.836,5.193-4.281
				c-2.897-2.441-1.985-7.018-7.482-5.95c-5.494,1.064-8.388,5.038-12.216,6.87c-3.812,1.832-7.474,3.049-9.455,5.037
				c-1.987,1.981-4.124,4.273-3.813,6.41c0.301,2.132,2.44,3.357-0.767,5.189c-3.209,1.828-6.259,3.361-3.813,4.729
				c2.443,1.373,2.292,2.444,1.987,3.357c-0.312,0.913,0,2.746,1.217,3.205C476.3,207.734,476.752,207.585,476.752,207.585z"/>
		</g>
		<g>
			<path fill="#206787" d="M459.359,214.147c-0.769,1.372-2.137,5.639-1.225,6.71c0.921,1.065,1.681,2.6,4.276,2.749
				c2.598,0.152,3.974-0.46,5.042,0.46c1.068,0.917,5.798,4.276,3.658,6.559c-2.134,2.292-6.502,5.752-3.054,5.037
				c4.422-0.912,6.562,4.277,7.935,3.817s1.836-2.597,0.616-4.729c-1.221-2.141-1.069-4.575,0.152-3.206
				c1.216,1.369,5.033,1.525,1.523-2.292c-3.508-3.817-2.745-5.646-4.27-6.871c-1.535-1.216-4.28-3.81-5.493-5.04
				c-1.224-1.214-0.619-0.757-2.901-2.286c-2.295-1.531-3.813-1.22-3.972-0.456c-0.146,0.76-0.914-0.152-1.377-0.308
				C459.813,214.147,459.359,214.147,459.359,214.147z"/>
		</g>
		<g>
			<path fill="#206787" d="M474.467,188.656c0.766-1.064,3.811-4.428,4.731-6.254c0.915-1.833,1.219-4.124-2.139-4.888
				c-3.355-0.761-7.885-1.49-9.766-0.612c-2.29,1.065-10.383,5.189-10.383,6.258c0,1.064,0,2.748,0.768,3.969
				c0.764,1.224,1.377,3.049,4.125,2.441c2.744-0.608,4.886,0.767,1.677,1.376c-3.209,0.616-7.02-0.764-7.479-2.589
				c-0.459-1.832-2.596-2.444-2.896-0.156c-0.301,2.292-0.769,5.041,0.146,6.717c0.921,1.681,0.769,3.662,3.058,4.274
				c2.288,0.611,3.969,1.68,3.202,2.901c-0.766,1.216-1.829,3.505-3.357,3.205c-1.528-0.308-3.659-2.292-3.659-1.22
				c0,1.068,0.61,1.375,2.134,2.901c1.528,1.527-0.301,3.658,1.069,4.273c1.371,0.608,9.466,1.981,9.621,0.913
				c0.146-1.068,1.522-4.122-1.376-3.966c-2.903,0.149-5.649,1.376-5.802,0c-0.148-1.38,0.613-3.057,2.741-2.445
				c2.137,0.616,5.346,0.616,5.506-0.46c0.144-1.068-0.465-3.512,0.754-4.425c1.223-0.919,3.664-4.273,3.063-5.646
				C469.579,193.849,474.467,188.656,474.467,188.656z"/>
		</g>
		<g>
			<path fill="#206787" d="M431.849,212.537c-0.644,0.018-1.176,0.492-1.274,1.122c-0.248,1.514-0.793,4.149-0.215,5.062
				c0.767,1.224,1.523,3.516,2.744,1.988c1.225-1.532,1.069-3.509,2.137-3.969c1.069-0.459,5.041-2.137,1.829-3.354
				C435.07,212.622,433.068,212.509,431.849,212.537z"/>
		</g>
		<g>
			<path fill="#206787" d="M435.854,217.044c-0.613,1.065-0.766,2.601-0.152,2.746c0.611,0.155,0.152,1.068,0.308,1.688
				c0.148,0.608,1.371,0.449,2.589,0.449c1.225,0,2.896,0.62,0.915,1.068c-1.98,0.463-3.355,0.62-2.133,1.688
				c1.218,1.068,1.677,3.505,3.658,2.745c1.988-0.764,4.128-1.833,5.041-1.833c0.916,0,3.81,1.069,2.745-1.224
				c-1.067-2.285-2.137-2.589-2.44-4.267c-0.305-1.684,0.301-7.177-1.377-5.649c-1.68,1.528-1.98,3.659-3.208,2.749
				c-1.217-0.919-2.894-2.295-3.966-1.68C436.769,216.132,435.854,217.044,435.854,217.044z"/>
		</g>
		<g>
			<path fill="#206787" d="M435.701,202.548c-1.829,1.065-4.123,3.817-2.898,4.425c1.218,0.612,3.517-1.103,4.273-1.987
				C440.731,200.715,435.701,202.548,435.701,202.548z"/>
		</g>
		<g>
			<path fill="#206787" d="M437.38,206.206c-0.912,1.984-2.596,3.969-0.611,4.121c1.984,0.152,2.288,0.765,2.443,1.376
				c0.146,0.616,1.826-0.152,3.358-0.612c1.528-0.459,3.053-0.301,3.36-1.833c0.304-1.524-0.308-2.286-1.38-3.506
				c-1.061-1.22-2.121-0.304-3.05,0.913c-0.916,1.22-2.444,0.307-2.745-0.297C438.449,205.752,437.38,206.206,437.38,206.206z"/>
		</g>
		<g>
			<path fill="#206787" d="M439.683,198.041c-0.137,0.145-0.188,0.368-0.084,0.534c0.283,0.478,1.029,0.645,1.646,0.684
				c0.483,0.031,1.061,0.031,1.358-0.365c0.375-0.492-0.029-1.263-0.608-1.486c-0.581-0.219-1.225-0.067-1.829,0.096
				L439.683,198.041z"/>
		</g>
		<g>
			<path fill="#206787" d="M468.302,229.871c0.134,0.117,0.357,0.173,0.524,0.096c0.491-0.227,0.691-0.87,0.763-1.401
				c0.042-0.428,0.068-0.934-0.311-1.203c-0.474-0.354-1.263-0.039-1.507,0.459c-0.244,0.492-0.116,1.065,0.015,1.592
				L468.302,229.871z"/>
		</g>
		<g>
			<path fill="#206787" d="M461.153,232.503c-0.209,0.06-0.365,0.234-0.411,0.446c-0.209,1.209-1.188,2.2-0.622,3.176
				c0.611,1.068,2.285,1.829,2.592,1.068c0.301-0.764,1.225-0.463,1.678-0.463c0.456,0,1.371-0.149,0.304-1.681
				c-0.739-1.054-1.489-0.375-2.593-2.363c-0.148-0.255-0.488-0.322-0.771-0.244L461.153,232.503z"/>
		</g>
		<g>
			<path fill="#206787" d="M449.315,214.359c-0.269,0.127-0.396,0.453-0.286,0.722c0.229,0.598,0.46,0.94-0.354,1.351
				c-1.016,0.513-0.611,0.513,0.407,2.037c1.016,1.528,1.523,2.746,2.342,1.73c0.813-1.015,2.033-2.745,1.117-3.563
				c-0.92-0.81,0.406-3.459-1.016-3.558C450.582,213.012,449.85,214.102,449.315,214.359z"/>
		</g>
		<g>
			<path fill="#206787" d="M445.213,195.274c0.405,1.016,1.322,1.221,1.322,2.031c0,0.821-1.421,1.429,0.504,2.239
				c1.94,0.817,3.161,2.547,3.358,1.627c0.206-0.912,0.31-2.646-0.299-3.456c-0.609-0.813-1.575-2.214-2.544-2.642
				C445.007,193.952,445.213,195.274,445.213,195.274z"/>
		</g>
		<g>
			<path fill="#206787" d="M439.719,200.662c-0.507,0.205-0.308,2.133,0.708,2.133c1.015,0,3.007-2.083,1.935-2.445
				C440.836,199.853,439.719,200.662,439.719,200.662z"/>
		</g>
		<g>
			<path fill="#206787" d="M446.84,205.65c0.51,1.012,0.304,3.354,1.216,3.354c0.921,0,1.024,0.305,1.532,0.92
				c0.506,0.611,2.239,1.022,2.239-1.323c0-2.342-0.509-3.566-1.43-3.251c-0.912,0.301-2.44,1.019-2.646,0.704
				C447.547,205.752,446.84,205.65,446.84,205.65z"/>
		</g>
		<g>
			<path fill="#206787" d="M451.112,197.609c0.305,0.711,0.206,3.155,1.422,3.155c1.222,0,1.833-1.833,0.411-2.745
				C451.521,197.107,451.112,197.609,451.112,197.609z"/>
		</g>
		<g>
			<path fill="#206787" d="M453.559,208.81c-0.918,0.909-1.123,1.928-0.411,2.331c0.715,0.407,2.137,1.528,1.627-0.817
				C454.269,207.992,453.559,208.81,453.559,208.81z"/>
		</g>
	</g>
	<g>
		<path fill="#3AC2DB" d="M536.862,333.774c-74.019-5.674-116.776-27.734-139.612-45.234
			c-24.797-19.007-32.154-36.955-32.225-37.136l1.029-0.41c0.071,0.173,7.351,17.896,31.947,36.723
			c22.714,17.39,65.26,39.301,138.949,44.951L536.862,333.774z"/>
	</g>
	<g>
		<path fill="#3AC2DB" d="M414.942,348.349c-14.987-46.358-13.591-86.799,4.146-120.192c26.86-50.563,82.672-67.216,83.227-67.375
			l0.313,1.064c-0.56,0.159-55.939,16.693-82.568,66.841c-17.586,33.114-18.956,73.257-4.062,119.326L414.942,348.349z"/>
	</g>
	<g>
		<path fill="#3AC2DB" d="M428.629,355.714l-0.382-1.04c45.145-16.471,75.646-42.139,90.651-76.282
			c23.199-52.793,0.781-108.177,0.552-108.729l1.022-0.428c0.232,0.555,22.835,56.359-0.559,109.595
			C504.787,313.265,474.071,339.134,428.629,355.714z"/>
	</g>
	<g>
		<path fill="#3AC2DB" d="M570.074,261.839c-73.022-5.564-115.184-27.472-137.695-44.873c-24.441-18.897-31.682-36.758-31.75-36.935
			l1.03-0.407c0.071,0.177,7.229,17.812,31.477,36.521c22.389,17.285,64.337,39.054,137.024,44.587L570.074,261.839z"/>
	</g>
</g>
<g id="capa5">
	<g id="cap1">
		<g>
			<path fill="#EA5645" d="M543.387,435.374c4.129-0.021,7.485,2.448,7.496,5.515l0.216,51.878c0.018,3.061-3.325,5.568-7.45,5.59
				l-277.742,1.149c-4.118,0.021-7.474-2.448-7.488-5.526l-0.22-51.854c-0.01-3.078,3.329-5.569,7.446-5.593L543.387,435.374z"/>
		</g>
		<g>
			<path fill="#D13431" d="M258.428,495.724c0.018,2.105,3.364,3.801,7.486,3.782l277.734-1.149c4.128-0.021,7.471-1.74,7.465-3.85
				l-0.036-7.824L258.4,487.898L258.428,495.724z"/>
		</g>
		<g>
			<path fill="#FFC23A" d="M317.999,444.997c11.688-0.039,21.205,8.504,21.247,19.103c0.045,10.587-9.4,19.219-21.081,19.258
				c-11.698,0.053-21.203-8.486-21.25-19.085C296.87,453.681,306.312,445.046,317.999,444.997z"/>
		</g>
		<g>
			<polygon fill="#D13431" points="281.1,487.772 423.225,487.188 423.275,498.833 281.149,499.414 			"/>
		</g>
	</g>
	<rect x="353.336" y="446.653" fill="none" width="192.01" height="35.355"/>
	<text transform="matrix(1 0 0 1 353.3364 458.4131)"><tspan x="0" y="0" fill="#FFFFFF" font-family="'Myriad-Roman'" font-size="16.5616">Sophie’s World </tspan><tspan x="0" y="19.874" fill="#FFFFFF" font-family="'Myriad-Roman'" font-size="16.5616">Jostein Gaarder</tspan></text>
</g>
<g id="capa4">
	<g id="cap3">
		<g>
			<path fill="#61313E" d="M535.856,560.396c5.092-0.008,9.222,3.246,9.248,7.269l0.284,68.144c0.023,4.032-4.095,7.315-9.186,7.333
				l-342.624,1.433c-5.096,0.021-9.226-3.232-9.243-7.255l-0.283-68.146c-0.018-4.029,4.097-7.318,9.187-7.345L535.856,560.396z"/>
		</g>
		<g>
			<path fill="#63A343" d="M535.856,560.396c5.092-0.008,9.222,3.246,9.248,7.269l0.284,68.144c0.023,4.032-4.095,7.315-9.186,7.333
				l-342.624,1.433c-5.096,0.021-9.226-3.232-9.243-7.255l-0.283-68.146c-0.018-4.029,4.097-7.318,9.187-7.345L535.856,560.396z"/>
		</g>
		<g>
			<path fill="#4F823C" d="M184.932,637.315c0.018,4.028,4.16,7.282,9.243,7.262l342.623-1.434c5.091-0.018,9.212-3.296,9.196-7.318
				l-0.064-14.972l-361.066,1.519L184.932,637.315z"/>
		</g>
		<g>
			
				<rect x="471.923" y="621.133" transform="matrix(-1 0.004 -0.004 -1 959.4436 1262.5725)" fill="#D13431" width="13.045" height="22.246"/>
		</g>
		<g>
			
				<rect x="493.058" y="621.032" transform="matrix(-1 0.0039 -0.0039 -1 1002.0513 1262.3501)" fill="#D13431" width="13.463" height="22.248"/>
		</g>
		<g>
			<g>
				<rect x="215.905" y="561.719" fill="#EA5645" width="94.889" height="82.546"/>
			</g>
			<g>
				<rect x="215.905" y="622.075" fill="#D13431" width="94.889" height="22.197"/>
			</g>
			<rect x="245.457" y="561.719" fill="#FFC23A" width="42.041" height="82.546"/>
			<rect x="245.457" y="622.075" fill="#F9A431" width="42.192" height="22.197"/>
		</g>
	</g>
	<rect x="320.742" y="574.32" fill="none" width="205.068" height="40.294"/>
	<text transform="matrix(1 0 0 1 320.7422 586.0791)"><tspan x="0" y="0" fill="#FFFFFF" font-family="'Myriad-Roman'" font-size="16.5616">The Problems of Philosophy </tspan><tspan x="0" y="19.874" fill="#FFFFFF" font-family="'Myriad-Roman'" font-size="16.5616">Bertrand Russell</tspan></text>
</g>
<g id="capa3">
	<g id="cap2">
		<g>
			<path fill="#22B1B6" d="M545.232,497.758c4.705-0.025,8.531,2.438,8.554,5.516l0.207,51.866c0.015,3.066-3.784,5.566-8.486,5.59
				l-316.389,1.322c-4.702,0.021-8.519-2.463-8.54-5.526l-0.212-51.855c-0.008-3.077,3.781-5.583,8.493-5.593L545.232,497.758z"/>
		</g>
		<g>
			<path fill="#179998" d="M220.063,555.631c0.015,3.569,3.838,6.442,8.546,6.421l316.886-1.322
				c4.705-0.023,8.504-2.926,8.496-6.489l-0.06-13.241l-333.925,1.385L220.063,555.631z"/>
		</g>
		<g>
			
				<rect x="295.107" y="498.646" transform="matrix(-1 0.0042 -0.0042 -1 663.1029 1058.8835)" fill="#FFC23A" width="70.657" height="62.99"/>
		</g>
		<g>
			<polygon fill="#F9A431" points="295.128,542.14 365.778,541.813 365.871,561.514 295.22,561.835 			"/>
		</g>
		<g>
			
				<rect x="442.385" y="541.551" transform="matrix(-1 0.005 -0.005 -1 897.4388 1100.5427)" fill="#F9A431" width="9.901" height="19.697"/>
		</g>
	</g>
	<rect x="374.218" y="505.496" fill="none" width="116.655" height="35.901"/>
	<text transform="matrix(1 0 0 1 374.2178 516.667)"><tspan x="0" y="0" fill="#FFFFFF" font-family="'Myriad-Roman'" font-size="15.7335">Meditations</tspan><tspan x="0" y="18.88" fill="#FFFFFF" font-family="'Myriad-Roman'" font-size="15.7335">Marco Aurelio</tspan></text>
</g>
<g id="capa2">
	<g id="cap5">
		<g>
			<path fill="#61313E" d="M155.125,642.667c-1.315,3.449-5.268,5.152-8.828,3.791L86.1,623.505c-3.556-1.36-5.38-5.26-4.065-8.703
				l88.567-232.225c1.317-3.449,5.266-5.147,8.832-3.789l60.188,22.954c3.565,1.357,5.383,5.256,4.068,8.706L155.125,642.667z"/>
		</g>
		<g>
			<path fill="#A04493" d="M155.125,642.667c-1.315,3.449-5.268,5.152-8.828,3.791L86.1,623.505c-3.556-1.36-5.38-5.26-4.065-8.703
				l88.567-232.225c1.317-3.449,5.266-5.147,8.832-3.789l60.188,22.954c3.565,1.357,5.383,5.256,4.068,8.706L155.125,642.667z"/>
		</g>
		<g>
			<path fill="#7F3C73" d="M179.271,379.196c-3.561-1.358-7.512,0.332-8.828,3.788L81.875,615.209
				c-1.313,3.44,0.505,7.345,4.065,8.706l13.209,5.035l93.325-244.717L179.271,379.196z"/>
		</g>
		<g>
			
				<rect x="96.176" y="574.722" transform="matrix(-0.9344 -0.3563 0.3563 -0.9344 -0.0805 1158.8953)" fill="#D13431" width="21.035" height="9.467"/>
		</g>
		<g>
			
				<rect x="90.697" y="589.02" transform="matrix(-0.9344 -0.3563 0.3563 -0.9344 -15.8194 1184.8899)" fill="#D13431" width="21.038" height="9.763"/>
		</g>
		<g>
			<polygon fill="#EA5645" points="164.737,398.109 237.829,425.979 210.333,498.09 137.242,470.215 			"/>
		</g>
		<g>
			
				<rect x="150.274" y="399.33" transform="matrix(-0.9343 -0.3564 0.3564 -0.9343 154.9528 904.3809)" fill="#D13431" width="21.031" height="77.172"/>
		</g>
		
			<rect x="147.393" y="433.348" transform="matrix(-0.9343 -0.3564 0.3564 -0.9343 200.239 937.777)" fill="#FFC23A" width="78.22" height="34.19"/>
		
			<rect x="149.26" y="423.076" transform="matrix(-0.9343 -0.3565 0.3565 -0.9343 152.1026 908.4966)" fill="#F9A431" width="21.031" height="34.309"/>
	</g>
	
		<rect x="52.549" y="500.469" transform="matrix(0.3578 -0.9338 0.9338 0.3578 -375.9844 496.8957)" fill="none" width="241.471" height="42.69"/>
	<text transform="matrix(0.3578 -0.9338 0.9338 0.3578 120.0313 630.7031)"><tspan x="0" y="0" fill="#FFFFFF" font-family="'Myriad-Roman'" font-size="14.9054">The Story of Philosophy </tspan><tspan x="-0.001" y="17.885" fill="#FFFFFF" font-family="'Myriad-Roman'" font-size="14.9054"> Will Durant</tspan></text>
</g>
<g id="capa1">
	<g id="cap4">
		<g>
			<path fill="#61313E" d="M69.934,634.521c-1.889,4.729-6.448,7.349-10.19,5.874L-3.604,615.28
				c-3.75-1.479-5.264-6.524-3.384-11.257l126.276-318.507c1.877-4.737,6.436-7.358,10.176-5.876l63.35,25.118
				c3.744,1.484,5.266,6.528,3.394,11.26L69.934,634.521z"/>
		</g>
		<g>
			<path fill="#E0913B" d="M69.934,634.521c-1.889,4.729-6.448,7.349-10.19,5.874L-3.604,615.28
				c-3.75-1.479-5.264-6.524-3.384-11.257l126.276-318.507c1.877-4.737,6.436-7.358,10.176-5.876l63.35,25.118
				c3.744,1.484,5.266,6.528,3.394,11.26L69.934,634.521z"/>
		</g>
		<g>
			<path fill="#CC761F" d="M129.246,280.194c-3.746-1.485-8.308,1.148-10.181,5.874L-7.212,604.575
				c-1.88,4.732-0.372,9.776,3.367,11.262l13.918,5.515l133.066-335.655L129.246,280.194z"/>
		</g>
		<g>
			
				<rect x="18.103" y="543.353" transform="matrix(0.3687 -0.9296 0.9296 0.3687 -499.8704 372.9393)" fill="#B9C114" width="13.044" height="22.247"/>
		</g>
		<g>
			
				<rect x="10.036" y="563.197" transform="matrix(0.3687 -0.9296 0.9296 0.3687 -523.2755 378.1586)" fill="#B9C114" width="13.462" height="22.248"/>
		</g>
		<g>
			<g>
				
					<rect x="84.45" y="324.481" transform="matrix(0.3724 -0.9281 0.9281 0.3724 -256.6687 351.9354)" fill="#EA5645" width="94.887" height="82.545"/>
			</g>
			<g>
				
					<rect x="56.438" y="343.413" transform="matrix(0.3724 -0.9281 0.9281 0.3724 -263.8146 318.8861)" fill="#D13431" width="94.89" height="22.198"/>
			</g>
			
				<rect x="109.709" y="327.383" transform="matrix(0.3724 -0.9281 0.9281 0.3724 -260.0938 352.6755)" fill="#FFC23A" width="42.039" height="82.546"/>
			
				<rect x="81.593" y="346.387" transform="matrix(0.3724 -0.9281 0.9281 0.3724 -267.3238 319.6492)" fill="#F9A431" width="42.193" height="22.199"/>
		</g>
	</g>
	
		<rect x="-28.458" y="493.424" transform="matrix(0.3662 -0.9305 0.9305 0.3662 -422.8755 407.6652)" fill="none" width="232.603" height="41.713"/>
	<text transform="matrix(0.3663 -0.9305 0.9305 0.3663 36.7808 619.1709)"><tspan x="0" y="0" fill="#FFFFFF" font-family="'Myriad-Roman'" font-size="16.5616">Philosophy: A Very Short</tspan><tspan x="0" y="19.874" fill="#FFFFFF" font-family="'Myriad-Roman'" font-size="16.5616"> Introduction — Edward Craig</tspan></text>
</g>
<path fill="#FFFFFF" d="M339.246,238.994c0,6.627-25.669,12-31.795,12l23.651,23.884l-59.053-23.884H64.092
	c-6.126,0-11.092-5.373-11.092-12v-66.213c0-6.627,4.966-12,11.092-12h264.062c6.126,0,11.092,5.373,11.092,12V238.994z"/>
<rect x="64.5" y="173.406" fill="none" width="268.5" height="68.094"/>
<text transform="matrix(1 0 0 1 64.5 188.3159)"><tspan x="0" y="0" font-family="'Myriad-Roman'" font-size="21">Aqui tienes materia de apoyo, </tspan><tspan x="0" y="25.2" font-family="'Myriad-Roman'" font-size="21">si te quedaste en alguna </tspan><tspan x="0" y="50.4" font-family="'Myriad-Roman'" font-size="21">pregunta.</tspan></text>
</svg>
